<mxfile host="app.diagrams.net" modified="2023-05-24T02:55:01.259Z" agent="Mozilla/5.0 (Macintosh; Intel Mac OS X 10_15_7) AppleWebKit/537.36 (KHTML, like Gecko) Chrome/113.0.0.0 Safari/537.36" etag="Iq_gFuvb0OQ6_6IA9q0o" version="21.3.2" type="github">
  <diagram name="Page-1" id="gVzFDZqywEgKDjrbjNUQ">
    <mxGraphModel dx="954" dy="616" grid="1" gridSize="10" guides="1" tooltips="1" connect="1" arrows="1" fold="1" page="1" pageScale="1" pageWidth="850" pageHeight="1100" math="0" shadow="0">
      <root>
        <mxCell id="0" />
        <mxCell id="1" parent="0" />
        <mxCell id="aJWObzdKGmTo51Pp0OyT-4" value="" style="edgeStyle=orthogonalEdgeStyle;rounded=0;orthogonalLoop=1;jettySize=auto;html=1;" edge="1" parent="1" source="aJWObzdKGmTo51Pp0OyT-1" target="aJWObzdKGmTo51Pp0OyT-2">
          <mxGeometry relative="1" as="geometry" />
        </mxCell>
        <mxCell id="aJWObzdKGmTo51Pp0OyT-1" value="&lt;font style=&quot;font-size: 22px;&quot;&gt;HOST&lt;/font&gt;" style="rounded=0;whiteSpace=wrap;html=1;" vertex="1" parent="1">
          <mxGeometry y="200" width="160" height="80" as="geometry" />
        </mxCell>
        <mxCell id="aJWObzdKGmTo51Pp0OyT-2" value="&lt;span style=&quot;font-size: 22px;&quot;&gt;Share&amp;nbsp;&lt;/span&gt;" style="rounded=0;whiteSpace=wrap;html=1;" vertex="1" parent="1">
          <mxGeometry x="320" y="200" width="160" height="80" as="geometry" />
        </mxCell>
        <mxCell id="aJWObzdKGmTo51Pp0OyT-5" value="" style="edgeStyle=orthogonalEdgeStyle;rounded=0;orthogonalLoop=1;jettySize=auto;html=1;" edge="1" parent="1" source="aJWObzdKGmTo51Pp0OyT-3" target="aJWObzdKGmTo51Pp0OyT-2">
          <mxGeometry relative="1" as="geometry" />
        </mxCell>
        <mxCell id="aJWObzdKGmTo51Pp0OyT-3" value="&lt;font style=&quot;font-size: 22px;&quot;&gt;MPE&lt;/font&gt;" style="rounded=0;whiteSpace=wrap;html=1;" vertex="1" parent="1">
          <mxGeometry x="640" y="200" width="160" height="80" as="geometry" />
        </mxCell>
      </root>
    </mxGraphModel>
  </diagram>
</mxfile>
